<svg xmlns="http://www.w3.org/2000/svg" viewBox="23 20 360 80">
  <g transform="translate(16 16) scale(0.078125)">
<g fill="#1f3d34" opacity="0.35" transform="translate(2 2)">
<path d="M 201.00 90.00 L 187.50 93.50 L 174.00 99.50 L 158.00 110.50 L 147.00 122.00 L 135.50 139.50 L 132.50 147.00 L 130.00 166.00 L 131.00 185.50 L 139.00 215.00 L 153.00 240.50 L 184.00 275.50 L 222.00 310.50 L 237.50 334.50 L 245.50 352.50 L 251.00 374.00 L 255.00 404.50 L 256.00 430.00 L 259.50 412.00 L 259.50 382.50 L 256.50 361.50 L 251.00 344.50 L 240.00 323.00 L 230.00 308.00 L 193.00 263.50 L 169.50 230.50 L 157.50 208.00 L 150.00 182.50 L 149.00 155.50 L 151.00 143.50 L 159.00 128.00 L 172.50 112.50 L 187.50 103.50 L 202.00 98.50 L 251.00 94.00 L 248.00 92.00 L 232.00 89.00 Z"/>
<path d="M 135.00 96.50 L 128.00 104.50 L 119.00 119.00 L 108.50 141.50 L 101.50 163.00 L 97.00 184.50 L 96.00 197.50 L 98.50 224.00 L 109.50 254.00 L 119.00 272.50 L 133.50 294.00 L 152.50 315.50 L 165.00 327.00 L 183.00 341.00 L 194.00 347.50 L 160.50 311.50 L 136.00 281.50 L 124.50 260.50 L 114.50 229.00 L 110.00 199.50 L 110.00 169.00 L 125.00 122.50 L 136.00 98.00 Z"/>
<path d="M 284.50 77.50 L 265.50 92.50 L 259.50 100.50 L 288.50 82.00 L 301.50 75.50 L 309.50 73.50 L 295.50 86.00 L 290.50 96.50 L 290.00 104.50 L 295.50 117.50 L 304.50 129.00 L 313.00 136.50 L 339.50 153.50 L 355.00 167.00 L 369.00 187.50 L 371.00 200.00 L 373.50 206.00 L 404.00 231.50 L 415.50 244.00 L 422.50 255.50 L 425.00 266.00 L 424.00 277.50 L 419.00 286.50 L 421.00 287.00 L 427.00 278.00 L 428.00 264.50 L 425.50 252.00 L 420.00 242.50 L 404.00 225.50 L 376.50 202.50 L 374.00 182.50 L 365.00 167.00 L 351.50 155.50 L 315.00 132.50 L 309.50 127.50 L 304.00 118.50 L 301.00 108.50 L 301.00 98.00 L 304.00 89.50 L 318.50 75.50 L 338.50 70.00 L 339.50 68.50 L 325.50 64.50 L 315.50 65.00 L 299.50 69.50 Z"/>
<path d="M 227.00 181.00 L 225.50 185.50 L 225.00 202.00 L 228.50 218.50 L 237.50 234.50 L 254.50 249.00 L 273.50 257.50 L 314.00 257.50 L 327.50 259.50 L 336.50 264.00 L 353.50 281.00 L 375.50 296.50 L 391.50 298.00 L 399.50 294.50 L 397.50 293.50 L 383.50 295.50 L 374.50 292.50 L 355.00 276.50 L 340.50 261.50 L 329.00 255.50 L 318.00 253.50 L 289.00 253.00 L 271.00 247.00 L 256.50 236.50 L 241.00 220.00 L 232.50 202.00 L 230.50 192.00 L 230.50 181.00 L 229.50 179.50 Z"/>
<path d="M 248.00 115.50 L 232.00 112.00 L 215.00 112.00 L 198.00 116.50 L 187.00 123.50 L 176.50 136.00 L 173.00 148.50 L 173.50 165.00 L 178.50 181.50 L 179.50 180.50 L 178.00 166.50 L 181.50 151.50 L 186.50 141.50 L 197.50 128.50 L 216.00 116.50 Z"/>
<path d="M 272.00 387.50 L 268.00 389.00 L 269.50 395.00 L 268.50 412.00 L 253.50 478.50 L 259.50 466.00 L 271.50 425.00 L 274.50 405.50 L 274.50 393.00 Z"/>
<path d="M 295.50 157.50 L 296.50 161.50 L 302.00 161.00 L 310.50 164.50 L 337.50 184.00 L 329.50 173.50 L 314.50 161.00 L 302.50 156.00 Z"/>
<path d="M 222.00 182.00 L 219.50 188.00 L 219.50 199.50 L 222.50 216.50 L 224.50 220.00 L 221.50 200.50 L 221.50 187.50 L 223.50 183.50 Z"/>
</g>
<g fill="#1f3d34">
<path d="M 199.50 90.50 L 185.50 94.50 L 172.00 101.00 L 158.50 110.50 L 145.50 124.50 L 134.50 142.00 L 131.00 154.00 L 130.50 179.50 L 135.50 204.00 L 140.50 218.00 L 153.00 240.00 L 183.00 274.00 L 221.50 309.50 L 237.50 334.00 L 244.50 349.00 L 249.50 365.50 L 253.50 388.50 L 256.00 425.00 L 257.00 425.00 L 259.50 408.50 L 259.00 379.50 L 255.50 358.50 L 249.00 340.50 L 240.00 323.50 L 230.00 308.50 L 195.00 266.50 L 169.50 231.00 L 157.50 208.50 L 150.00 184.00 L 148.50 161.00 L 150.50 144.50 L 158.00 129.00 L 172.00 112.50 L 188.00 103.00 L 203.00 98.00 L 249.00 94.00 L 248.00 92.50 L 228.50 89.00 Z"/>
<path d="M 133.50 99.00 L 128.50 104.50 L 118.50 120.50 L 108.00 143.50 L 102.00 162.00 L 96.50 192.50 L 98.50 223.00 L 109.50 253.50 L 119.00 272.00 L 133.00 293.00 L 148.50 311.00 L 161.00 323.00 L 181.50 339.50 L 191.00 345.00 L 152.00 302.00 L 132.00 276.00 L 121.50 253.50 L 114.50 230.00 L 109.50 196.00 L 110.00 168.00 L 122.50 128.50 L 134.50 100.00 Z"/>
<path d="M 286.50 76.50 L 270.50 88.50 L 263.00 95.50 L 262.00 98.00 L 292.50 79.50 L 302.00 75.00 L 310.50 73.00 L 298.50 83.00 L 293.50 89.50 L 291.00 95.50 L 290.50 104.50 L 295.50 117.00 L 302.50 126.50 L 311.50 135.00 L 321.50 142.50 L 340.00 153.50 L 353.50 165.00 L 362.50 176.00 L 369.00 187.00 L 373.00 205.00 L 376.50 209.00 L 400.50 228.00 L 415.50 243.50 L 423.00 256.00 L 425.00 264.00 L 425.00 274.00 L 423.50 279.50 L 420.00 285.50 L 421.00 286.50 L 426.00 280.00 L 428.00 266.00 L 425.00 251.50 L 419.00 241.50 L 402.50 224.50 L 376.50 203.00 L 373.50 181.50 L 365.50 168.00 L 352.50 156.50 L 316.50 134.00 L 309.00 127.00 L 303.50 118.00 L 301.00 110.00 L 300.50 100.00 L 304.00 89.00 L 318.00 75.50 L 328.50 71.50 L 339.00 69.50 L 339.00 68.50 L 324.00 64.50 L 317.00 65.00 L 301.50 69.00 Z"/>
<path d="M 227.50 181.00 L 226.00 184.00 L 225.00 194.50 L 227.00 214.00 L 232.50 226.50 L 237.50 234.00 L 252.00 247.00 L 266.50 255.00 L 275.00 257.50 L 283.50 258.50 L 318.00 257.50 L 326.50 259.00 L 337.00 264.00 L 351.50 279.00 L 373.00 295.00 L 383.00 298.00 L 393.00 297.50 L 398.50 295.00 L 398.50 294.00 L 390.50 295.50 L 382.00 295.50 L 376.50 294.00 L 353.50 275.50 L 339.50 261.00 L 331.00 256.50 L 321.00 254.00 L 291.00 253.50 L 281.50 251.50 L 270.50 247.00 L 255.00 235.50 L 240.00 219.00 L 232.00 201.50 L 230.00 190.50 L 230.00 180.50 Z"/>
<path d="M 245.50 115.00 L 234.00 112.50 L 216.00 112.00 L 202.50 115.00 L 188.00 123.00 L 178.00 134.00 L 173.50 146.50 L 173.50 163.50 L 177.50 178.50 L 178.50 178.50 L 178.00 163.50 L 182.50 148.50 L 190.50 135.50 L 200.00 126.00 L 213.00 117.50 L 219.00 115.50 L 245.50 116.00 Z"/>
<path d="M 271.50 387.50 L 268.50 388.50 L 269.50 393.00 L 268.50 413.50 L 255.50 472.50 L 257.00 471.50 L 263.50 453.00 L 272.50 419.00 L 274.50 394.50 L 273.50 390.00 Z"/>
<path d="M 296.00 157.50 L 295.50 160.00 L 296.50 161.00 L 301.00 160.50 L 311.00 164.50 L 335.50 182.00 L 324.50 169.00 L 314.00 161.00 L 301.50 156.00 Z"/>
</g>
  </g>
  <text x="72" y="58"
    font-family="Inter, system-ui, -apple-system, Segoe UI, Roboto, sans-serif"
    font-size="36" font-weight="600" fill="#1f3d34">reitbeteiligung.app</text>
  <text x="72" y="90"
    font-family="Inter, system-ui, -apple-system, Segoe UI, Roboto, sans-serif"
    font-size="14" letter-spacing="2"
    fill="#1f3d34" opacity="0.7">ORGANISATION FÜR REITBETEILIGUNGEN</text>
</svg>